<svg width="496" height="234" viewBox="0 0 496 234" fill="none" xmlns="http://www.w3.org/2000/svg">
<g clip-path="url(#clip0_1_610)">
<g clip-path="url(#clip1_1_610)">
<path d="M115.665 227.878H200.713V184.343H195.27L225.888 142.849L223.166 179.581L202.754 182.302L220.444 175.5L223.166 146.93" stroke="#232B2F" stroke-width="1.5" stroke-linecap="round" stroke-linejoin="round"/>
<path d="M0.680359 227.878H109.542" stroke="#232B2F" stroke-width="1.5" stroke-linecap="round" stroke-linejoin="round"/>
<path d="M225.888 142.849L229.97 123.802L235.413 175.5L254.464 145.57V130.605L231.331 123.802L254.464 126.523V111.558L258.546 106.116L270.793 111.558V129.244L257.185 142.849L276.236 127.884L307.534 117L258.546 171.419L235.413 176.861L259.907 175.5L308.894 121.081L351.078 176.861H337.471V223.116H266.711L204.115 216.314L266.711 220.395V171.419L308.894 125.163L345.635 174.14" stroke="#232B2F" stroke-width="1.5" stroke-linecap="round" stroke-linejoin="round"/>
<path d="M322.502 133.326L357.882 137.407L389.18 179.581L342.914 180.942L404.148 183.663L397.344 189.105V213.593L341.553 217.674H397.344V227.198H495.32" stroke="#232B2F" stroke-width="1.5" stroke-linecap="round" stroke-linejoin="round"/>
<path d="M115.175 227.687V158.44L164.299 157.637L172.355 154.413H109.542V233.32" stroke="#232B2F" stroke-width="1.5" stroke-linecap="round" stroke-linejoin="round"/>
<path d="M125.041 164.004H130.879V165.691H126.892V167.147H130.239V168.766H126.892V171.813H125.041V164.018V164.004ZM125.286 171.555H126.647V168.507H129.994V167.378H126.647V165.446H130.634V164.249H125.3V171.568L125.286 171.555Z" stroke="#232B2F" stroke-width="0.75" stroke-linecap="round" stroke-linejoin="round"/>
<path d="M142.132 167.895C142.132 170.371 140.499 171.963 138.281 171.963C136.063 171.963 134.43 170.371 134.43 167.895C134.43 165.419 136.063 163.827 138.281 163.827C140.499 163.827 142.132 165.419 142.132 167.895ZM141.887 167.895C141.887 165.46 140.254 164.058 138.295 164.058C136.335 164.058 134.702 165.46 134.702 167.895C134.702 170.33 136.335 171.731 138.295 171.731C140.254 171.731 141.887 170.33 141.887 167.895ZM136.05 167.895C136.05 166.031 137.125 165.133 138.295 165.133C139.465 165.133 140.54 166.031 140.54 167.895C140.54 169.759 139.465 170.657 138.295 170.657C137.125 170.657 136.05 169.759 136.05 167.895ZM140.282 167.895C140.282 166.031 139.207 165.378 138.295 165.378C137.383 165.378 136.308 166.031 136.308 167.895C136.308 169.759 137.383 170.412 138.295 170.412C139.207 170.412 140.282 169.759 140.282 167.895Z" stroke="#232B2F" stroke-width="0.75" stroke-linecap="round" stroke-linejoin="round"/>
<path d="M146.514 164.004H150.351C151.753 164.004 153.086 164.535 153.086 166.222C153.086 167.337 152.46 167.868 152.066 168.113C152.76 168.48 152.964 169.187 153.005 169.936L153.059 170.67C153.114 171.446 153.318 171.65 153.481 171.799H151.467C151.358 171.718 151.277 171.296 151.222 170.453C151.141 169.051 150.8 168.874 149.698 168.874H148.392V171.799H146.541V164.004H146.514ZM146.759 171.555H148.12V168.63H149.603C150.583 168.63 151.331 168.63 151.413 170.126L151.44 170.67C151.467 171.201 151.535 171.378 151.59 171.555H152.978C152.91 171.473 152.841 171.269 152.787 170.643L152.733 169.949C152.61 168.766 152.392 168.548 151.658 168.126V168.099C151.78 168.004 152.828 167.528 152.828 166.29C152.828 164.222 150.868 164.222 150.202 164.222H146.772V171.541L146.759 171.555ZM148.12 165.31H149.916C150.392 165.31 151.467 165.31 151.467 166.494C151.467 167.677 150.392 167.691 149.916 167.691H148.12V165.31ZM148.365 167.446H149.916C150.419 167.446 151.209 167.446 151.209 166.48C151.209 165.514 150.406 165.541 149.916 165.541H148.365V167.446V167.446Z" stroke="#232B2F" stroke-width="0.75" stroke-linecap="round" stroke-linejoin="round"/>
<path d="M122.306 182.166C122.333 182.547 122.387 183.595 123.884 183.595C124.837 183.595 125.218 183.255 125.218 182.656C125.218 182.221 124.837 182.057 124.306 181.908L122.537 181.404C122.088 181.268 120.741 180.887 120.741 179.377C120.741 177.949 121.911 176.942 123.816 176.942C125.585 176.942 126.715 177.799 126.81 179.581H125C124.959 179.214 124.878 178.425 123.68 178.425C123.177 178.425 122.564 178.602 122.564 179.2C122.564 179.554 122.755 179.704 123.177 179.826L125.3 180.411C126.266 180.67 127.096 181.268 127.096 182.493C127.096 183.88 126.225 185.091 123.844 185.091C121.87 185.091 120.578 184.234 120.482 182.18H122.333L122.306 182.166ZM120.7 182.411C120.782 183.799 121.775 184.846 123.816 184.846C125.694 184.846 126.824 183.989 126.824 182.493C126.824 180.996 125.422 180.697 124.796 180.52L123.544 180.18C122.578 179.921 122.306 179.717 122.306 179.214C122.306 178.439 123.109 178.194 123.667 178.194C124.973 178.194 125.136 179.024 125.204 179.35H126.551C126.415 177.922 125.327 177.187 123.816 177.187C121.734 177.187 121 178.33 121 179.377C121 180.574 121.87 180.955 122.619 181.173L124.401 181.69C125.449 181.989 125.476 182.343 125.476 182.67C125.476 183.499 124.755 183.853 123.898 183.853C122.319 183.853 122.143 182.778 122.088 182.425H120.727L120.7 182.411Z" stroke="#232B2F" stroke-width="0.75" stroke-linecap="round" stroke-linejoin="round"/>
<path d="M133.342 177.105H135.192L138.132 184.901H136.145L135.546 183.159H132.92L132.321 184.901H130.402L133.355 177.105H133.342ZM130.756 184.656H132.144L132.743 182.914H135.723L136.322 184.656H137.778L135.029 177.337H133.519L130.756 184.656V184.656ZM135.451 181.976H133.042L134.253 178.683L135.437 181.976H135.451ZM134.267 179.364H134.24L133.382 181.731H135.083L134.253 179.364H134.267Z" stroke="#232B2F" stroke-width="0.75" stroke-linecap="round" stroke-linejoin="round"/>
<path d="M141.915 177.105H143.765V183.214H147.48V184.901H141.915V177.105V177.105ZM142.159 184.656H147.222V183.459H143.507V177.35H142.146V184.669L142.159 184.656Z" stroke="#232B2F" stroke-width="0.75" stroke-linecap="round" stroke-linejoin="round"/>
<path d="M151.617 177.105H157.754V178.724H153.467V180.098H157.291V181.649H153.467V183.227H157.863V184.914H151.617V177.119V177.105ZM151.862 184.656H157.604V183.459H153.209V181.404H157.033V180.33H153.209V178.479H157.495V177.35H151.862V184.669V184.656Z" stroke="#232B2F" stroke-width="0.75" stroke-linecap="round" stroke-linejoin="round"/>
<path d="M162.693 160.848L160.285 189.839H116.795" stroke="#232B2F" stroke-width="1.5" stroke-linecap="round" stroke-linejoin="round"/>
</g>
</g>
<defs>
<clipPath id="clip0_1_610">
<rect width="496" height="234" fill="white"/>
</clipPath>
<clipPath id="clip1_1_610">
<rect width="496" height="234" fill="white"/>
</clipPath>
</defs>
</svg>
